<svg width="360" height="360" viewBox="0 0 360 360" fill="none" xmlns="http://www.w3.org/2000/svg">
<g clip-path="url(#clip0_79_155)">
<rect x="222" y="255.941" width="48" height="160" rx="24" transform="rotate(-45 222 255.941)" fill="#009966"/>
<circle cx="160" cy="160" r="144" fill="black" stroke="#009966" stroke-width="32"/>
<path d="M161.951 62C176.459 62 189.43 64.1811 200.83 68.5889H200.829C212.191 72.9212 221.296 78.9018 228.053 86.5801L228.497 87.0859C233.043 92.3354 236.136 98.1035 237.731 104.383C239.246 110.346 234.167 115.091 228.651 115.091H217.898C212.832 115.091 209.011 111.307 207.307 107.153C205.028 101.599 200.711 96.9958 194.157 93.3887C185.272 88.4989 174.278 86 161.084 86C151.434 86 143.074 87.3086 135.97 89.8779L135.971 89.8789C128.915 92.4566 123.517 95.9535 119.667 100.31L119.668 100.311C115.923 104.629 114.087 109.472 114.087 114.909C114.087 119.462 115.364 123.28 117.865 126.465C120.567 129.748 124.033 132.522 128.299 134.773C132.662 137.015 137.239 138.876 142.031 140.354L143.841 140.884C147.423 141.915 150.777 142.792 153.901 143.516L155.444 143.865L155.454 143.867L178.001 148.958H178C183.849 150.246 190.334 152.019 197.454 154.273L198.82 154.713C205.622 156.955 212.133 159.929 218.349 163.634L218.983 164.009C225.514 167.911 230.938 172.887 235.234 178.933C239.781 185.33 242 193.118 242 202.182C242 212.692 238.704 222.207 232.156 230.669L232.157 230.67C225.672 239.144 216.238 245.789 203.993 250.676L203.992 250.675C191.768 255.582 177.012 258 159.783 258C143.711 258 129.699 255.825 117.789 251.421L117.785 251.42C105.974 247.024 96.5622 240.853 89.6514 232.853L89.6445 232.845C84.7947 227.168 81.4223 220.821 79.5498 213.816C77.9325 207.766 82.9842 202.728 88.71 202.728H100.531C105.746 202.728 109.63 206.715 111.196 211.084C112.509 214.747 114.62 217.949 117.554 220.704L118 221.104C122.657 225.216 128.516 228.342 135.635 230.445H135.634C143.093 232.568 151.139 233.637 159.783 233.637C169.866 233.637 178.856 232.266 186.779 229.562C194.707 226.795 200.871 223.011 205.37 218.269C209.803 213.537 211.983 208.083 211.983 201.818C211.983 196.131 210.112 191.647 206.434 188.184C202.559 184.535 197.395 181.509 190.866 179.154C184.227 176.76 177.04 174.66 169.303 172.857L169.29 172.854L141.973 166.309L141.971 166.308C124.456 162.085 110.438 156.023 100.029 148.042C89.4277 139.913 84.0703 129.179 84.0703 116C84.0703 105.103 87.5994 95.5453 94.6406 87.418L94.6416 87.415C101.688 79.3053 111.09 73.073 122.764 68.6738C134.511 64.2132 147.583 62 161.951 62Z" fill="white" stroke="white" stroke-width="4"/>
</g>
<defs>
<clipPath id="clip0_79_155">
<rect width="360" height="360" fill="white"/>
</clipPath>
</defs>
</svg>
