<svg width="360" height="360" viewBox="0 0 360 360" fill="none" xmlns="http://www.w3.org/2000/svg">
<g clip-path="url(#clip0_73_169)">
<rect x="245" y="278.941" width="48" height="128" rx="24" transform="rotate(-45 245 278.941)" fill="#009966"/>
<circle cx="176" cy="176" r="160" fill="black" stroke="#009966" stroke-width="32"/>
<path d="M178.146 70C194.082 70 208.321 72.3594 220.831 77.123H220.83C233.306 81.808 243.296 88.2728 250.706 96.5693H250.705C256.128 102.576 259.74 109.218 261.483 116.486C262.911 122.438 257.874 127.182 252.343 127.182H238.979C233.924 127.182 230.084 123.421 228.437 119.215C225.972 112.923 221.128 107.734 213.681 103.697C203.868 98.3789 191.735 95.667 177.192 95.667C166.556 95.667 157.334 97.0868 149.489 99.8809L149.49 99.8818C141.695 102.687 135.722 106.499 131.462 111.252C127.323 115.958 125.295 121.234 125.295 127.151C125.295 132.107 126.707 136.274 129.481 139.756L130.052 140.421C132.951 143.709 136.593 146.509 141.012 148.807L141.919 149.26C146.461 151.496 151.211 153.368 156.169 154.875C161.539 156.44 166.462 157.708 170.939 158.682L170.949 158.684L195.751 164.199H195.75C202.176 165.593 209.304 167.512 217.131 169.952H217.132C225.143 172.425 232.791 175.8 240.071 180.074C247.543 184.346 253.723 189.854 258.587 196.595C263.565 203.493 266 211.9 266 221.697C266 233.054 262.384 243.331 255.204 252.469L255.205 252.47C248.096 261.619 237.749 268.798 224.309 274.081L224.308 274.08C210.895 279.383 194.693 282 175.762 282C158.103 282 142.717 279.647 129.646 274.887L129.643 274.886C116.678 270.134 106.356 263.466 98.7783 254.826L98.7715 254.818C93.2836 248.493 89.5209 241.395 87.5098 233.542C85.962 227.498 90.9795 222.454 96.7217 222.454H111.317C116.522 222.454 120.428 226.421 121.933 230.844C123.368 235.065 125.769 238.736 129.163 241.875L129.656 242.312C134.804 246.787 141.277 250.187 149.134 252.474H149.133C157.36 254.78 166.234 255.939 175.762 255.939C186.869 255.939 196.78 254.454 205.52 251.517C214.277 248.508 221.094 244.389 226.071 239.219C230.972 234.063 233.382 228.12 233.382 221.303C233.382 215.11 231.312 210.21 227.226 206.421C222.94 202.446 217.233 199.156 210.029 196.597C202.717 193.999 194.803 191.722 186.284 189.768L186.272 189.765L156.224 182.674L156.221 182.673C136.975 178.103 121.586 171.546 110.166 162.922C98.5517 154.151 92.6777 142.57 92.6777 128.333C92.6778 116.559 96.5484 106.239 104.266 97.4668L104.268 97.4648C111.996 88.7055 122.308 81.9709 135.12 77.2158C148.014 72.3941 162.365 70 178.146 70Z" fill="white" stroke="white" stroke-width="4"/>
</g>
<defs>
<clipPath id="clip0_73_169">
<rect width="360" height="360" fill="white"/>
</clipPath>
</defs>
</svg>
