<svg width="360" height="360" viewBox="0 0 360 360" fill="none" xmlns="http://www.w3.org/2000/svg">
<path fill-rule="evenodd" clip-rule="evenodd" d="M313.672 82.0174C315.162 83.5164 315.999 85.5445 315.999 87.6585V145.635C315.999 147.749 315.162 149.777 313.672 151.276L290.718 174.358C287.615 177.478 287.615 182.519 290.718 185.64L313.673 208.724C315.163 210.223 316 212.251 316 214.365V272.342C316 274.456 315.163 276.484 313.673 277.983L257.674 334.296C254.546 337.441 249.456 337.441 246.328 334.296L190.328 277.983C188.838 276.484 188.001 274.455 188.001 272.341V214.365C188.001 212.251 188.838 210.223 190.328 208.724L213.281 185.641C216.384 182.52 216.384 177.48 213.281 174.359L190.327 151.276C188.837 149.777 188 147.749 188 145.635V87.6585C188 85.5445 188.837 83.5164 190.327 82.0174L246.326 25.7044C249.454 22.5591 254.544 22.5591 257.672 25.7044L313.672 82.0174ZM192.327 83.2412C190.837 84.7402 190 86.7682 190 88.8822V144.412C190 146.526 190.837 148.554 192.327 150.053L250.672 208.724C252.162 210.223 252.999 212.251 252.999 214.365V274.03C252.999 274.582 252.551 275.03 251.999 275.03C251.447 275.03 250.999 274.582 250.999 274.03V215.588C250.999 213.474 250.162 211.446 248.672 209.947L226.173 187.322C223.045 184.177 217.955 184.177 214.827 187.322L192.328 209.949C190.838 211.448 190.001 213.476 190.001 215.59V271.117C190.001 273.231 190.838 275.259 192.328 276.758L246.327 331.061C249.455 334.206 254.545 334.206 257.673 331.061L311.673 276.759C313.163 275.26 314 273.232 314 271.118V215.588C314 213.474 313.163 211.446 311.673 209.947L253.328 151.276C251.838 149.777 251.001 147.749 251.001 145.635V85.9703C251.001 85.4181 251.449 84.9703 252.001 84.9703C252.553 84.9703 253.001 85.4181 253.001 85.9703V144.412C253.001 146.526 253.838 148.554 255.328 150.053L277.826 172.677C280.954 175.822 286.044 175.822 289.172 172.677L311.672 150.051C313.162 148.552 313.999 146.524 313.999 144.41V88.8834C313.999 86.7694 313.162 84.7414 311.672 83.2424L257.673 28.9391C254.545 25.7937 249.455 25.7936 246.327 28.939L192.327 83.2412Z" fill="black" stroke="black" stroke-width="16"/>
<path fill-rule="evenodd" clip-rule="evenodd" d="M169.672 82.0174C171.162 83.5164 171.999 85.5445 171.999 87.6585V145.635C171.999 147.749 171.162 149.777 169.672 151.276L146.718 174.358C143.615 177.478 143.615 182.519 146.718 185.64L169.673 208.724C171.163 210.223 172 212.251 172 214.365V272.342C172 274.456 171.163 276.484 169.673 277.983L113.674 334.296C110.546 337.441 105.456 337.441 102.328 334.296L46.3284 277.983C44.8377 276.484 44.001 274.455 44.001 272.341V214.365C44.001 212.251 44.8377 210.223 46.3282 208.724L69.2813 185.641C72.3843 182.52 72.3843 177.48 69.2812 174.359L46.3273 151.276C44.8367 149.777 44 147.749 44 145.635V87.6585C44 85.5445 44.8367 83.5164 46.3274 82.0174L102.326 25.7044C105.454 22.5591 110.544 22.5591 113.672 25.7044L169.672 82.0174ZM48.3274 83.2412C46.8367 84.7402 46 86.7682 46 88.8822V144.412C46 146.526 46.8367 148.554 48.3274 150.053L106.672 208.724C108.162 210.223 108.999 212.251 108.999 214.365V274.03C108.999 274.582 108.551 275.03 107.999 275.03C107.447 275.03 106.999 274.582 106.999 274.03V215.588C106.999 213.474 106.162 211.446 104.672 209.947L82.1728 187.322C79.045 184.177 73.9551 184.177 70.8273 187.322L48.3282 209.949C46.8376 211.448 46.001 213.476 46.001 215.59V271.117C46.001 273.231 46.8377 275.259 48.3283 276.758L102.327 331.061C105.455 334.206 110.545 334.206 113.673 331.061L167.673 276.759C169.163 275.26 170 273.232 170 271.118V215.588C170 213.474 169.163 211.446 167.673 209.947L109.328 151.276C107.838 149.777 107.001 147.749 107.001 145.635V85.9703C107.001 85.4181 107.449 84.9703 108.001 84.9703C108.553 84.9703 109.001 85.4181 109.001 85.9703V144.412C109.001 146.526 109.838 148.554 111.328 150.053L133.826 172.677C136.954 175.822 142.044 175.822 145.172 172.677L167.672 150.051C169.162 148.552 169.999 146.524 169.999 144.41V88.8834C169.999 86.7694 169.162 84.7414 167.672 83.2424L113.673 28.9391C110.545 25.7937 105.455 25.7936 102.327 28.939L48.3274 83.2412Z" fill="#009966" stroke="#009966" stroke-width="16"/>
</svg>
